<svg fill="none" xmlns="http://www.w3.org/2000/svg" viewBox="0 0 36 36" width="28px" height="28px">
    <defs>
        <linearGradient id="grad1" x1="0%" y1="0%" x2="100%" y2="0%">
            <stop offset="0%" style="stop-color:green;stop-opacity:0.4" >
                <animate attributeName="stop-color" values=" green; rgb(135,210,231)" dur="4s" repeatCount="1" fill="freeze">
                </animate>
                <animate attributeName="stop-opacity" values="0.4; 1" dur="4s" repeatCount="1" fill="freeze">
                </animate>
            </stop>
            <stop offset="100%" style="stop-color:rgb(135,210,231);stop-opacity:1">
                <animate attributeName="stop-color" values="green; rgb(135,210,231)" dur="4s" repeatCount="1" fill="freeze">
                </animate>
            </stop>
        </linearGradient>
    </defs>
    <g transform="translate(8, 2)" fill="rgb(135,210,231)" >
        <path class="icon-background-fill" d="M0 0 L24 0 L24 3.2 L24 17.8 L12 24.4 L0 17.8 Z" stroke-width="0" stroke="black" fill="none"/>
        <!--        <path class="icon" d="M0 0 L24 0 L24 3.2 L14.4 3.2 L0 11.4 L0 8 L8.2 3.2 L0 3.2 Z" stroke-width="0" />-->
        <path class="icon" d="M0 0 L0 11.4 L14.4 3.2 L24 3.2 L24 0 L13.66 0 L0 8 L3.2 6.12 L3.2 0 Z" fill="url(#grad1)" stroke-width="0" ></path>
        <path class="icon" d="M0 16.7 L0 16 L15.4 7 L24 7 L24 10.2 L16.2 10.2 L9.6 13.8 L24 13.8 L24 17.8 L12 24.4 L5.4 20.8 L12.4 20.8 L20 16.7 Z" stroke-width="0" />
        <text class="svg-logo-name" x="0" y="29" stroke="none" fill="grey"  font-size="4" font-family="Abel">VALUE SCORE</text>
<!--        <text class="svg-logo-tagline" x="0" y="32" stroke="none" fill="grey"  font-size="4"></text>-->
    </g>
</svg>